<svg xmlns="http://www.w3.org/2000/svg" version="1.1" xmlns:xlink="http://www.w3.org/1999/xlink" xmlns:svgjs="http://svgjs.dev/svgjs" width="1440" height="900" preserveAspectRatio="none" viewBox="0 0 1440 900"><g mask="url(&quot;#SvgjsMask1223&quot;)" fill="none"><rect width="1440" height="900" x="0" y="0" fill="#0e2a47"></rect><path d="M -363.4858216678659,553 C -305.89,488.8 -190.69,250.4 -75.48582166786589,232 C 39.71,213.6 97.31,462.2 212.51417833213412,461 C 327.71,459.8 385.31,177.8 500.5141783321341,226 C 615.71,274.2 673.31,726.6 788.5141783321341,702 C 903.71,677.4 961.31,136 1076.5141783321342,103 C 1191.71,70 1291.82,514.4 1364.5141783321342,537 C 1437.21,559.6 1424.9,280.2 1440,216" stroke="rgba(51, 121, 194, 0.58)" stroke-width="2"></path><path d="M -55.22768111978189,177 C 2.37,242.4 117.57,503.8 232.7723188802181,504 C 347.97,504.2 405.57,184 520.7723188802181,178 C 635.97,172 693.57,463.4 808.7723188802181,474 C 923.97,484.6 981.57,231.6 1096.772318880218,231 C 1211.97,230.4 1269.57,497.4 1384.772318880218,471 C 1499.97,444.6 1661.73,102.2 1672.772318880218,99 C 1683.82,95.8 1486.55,383.8 1440,455" stroke="rgba(51, 121, 194, 0.58)" stroke-width="2"></path><path d="M -65.34577242012102,660 C -7.75,595.6 107.45,315.6 222.65422757987898,338 C 337.85,360.4 395.45,809.8 510.654227579879,772 C 625.85,734.2 683.45,138.4 798.654227579879,149 C 913.85,159.6 971.45,786.6 1086.654227579879,825 C 1201.85,863.4 1259.45,360.2 1374.654227579879,341 C 1489.85,321.8 1649.59,752.4 1662.654227579879,729 C 1675.72,705.6 1484.53,325 1440,224" stroke="rgba(51, 121, 194, 0.58)" stroke-width="2"></path><path d="M -138.39056179854552,408 C -80.79,482 34.41,778 149.60943820145448,778 C 264.81,778 322.41,450 437.6094382014545,408 C 552.81,366 610.41,629 725.6094382014545,568 C 840.81,507 898.41,104.4 1013.6094382014545,103 C 1128.81,101.6 1186.41,541.4 1301.6094382014544,561 C 1416.81,580.6 1561.93,161.2 1589.6094382014544,201 C 1617.29,240.8 1469.92,648.2 1440,760" stroke="rgba(51, 121, 194, 0.58)" stroke-width="2"></path></g><defs><mask id="SvgjsMask1223"><rect width="1440" height="900" fill="#ffffff"></rect></mask></defs></svg>