<svg xmlns="http://www.w3.org/2000/svg" version="1.1" xmlns:xlink="http://www.w3.org/1999/xlink" xmlns:svgjs="http://svgjs.dev/svgjs" width="1440" height="560" preserveAspectRatio="none" viewBox="0 0 1440 560"><g mask="url(&quot;#SvgjsMask1460&quot;)" fill="none"><rect width="1440" height="560" x="0" y="0" fill="url(&quot;#SvgjsLinearGradient1461&quot;)"></rect><path d="M-50.45 377.98L-50.45 377.98" stroke="#132e65" stroke-width="1.5"></path><path d="M-50.45 377.98L-63.94 496.96" stroke="#132e65" stroke-width="1.5"></path><path d="M-50.45 377.98L112.26 404.08" stroke="#132e65" stroke-width="1.5"></path><path d="M-50.45 377.98L57.78 503.88" stroke="#132e65" stroke-width="1.5"></path><path d="M-63.94 496.96L-63.94 496.96" stroke="#132e65" stroke-width="1.5"></path><path d="M-63.94 496.96L57.78 503.88" stroke="#132e65" stroke-width="1.5"></path><path d="M-63.94 496.96L112.26 404.08" stroke="#132e65" stroke-width="1.5"></path><path d="M-63.94 496.96L-95.92 696.45" stroke="#132e65" stroke-width="1.5"></path><path d="M-95.92 696.45L-95.92 696.45" stroke="#132e65" stroke-width="1.5"></path><path d="M-95.92 696.45L69.19 661.17" stroke="#132e65" stroke-width="1.5"></path><path d="M112.26 404.08L112.26 404.08" stroke="#132e65" stroke-width="1.5"></path><path d="M112.26 404.08L57.78 503.88" stroke="#132e65" stroke-width="1.5"></path><path d="M112.26 404.08L216.15 355.56" stroke="#132e65" stroke-width="1.5"></path><path d="M112.26 404.08L195.64 495.7" stroke="#132e65" stroke-width="1.5"></path><path d="M57.78 503.88L57.78 503.88" stroke="#132e65" stroke-width="1.5"></path><path d="M69.19 661.17L69.19 661.17" stroke="#132e65" stroke-width="1.5"></path><path d="M69.19 661.17L57.78 503.88" stroke="#132e65" stroke-width="1.5"></path><path d="M69.19 661.17L195.64 495.7" stroke="#132e65" stroke-width="1.5"></path><path d="M69.19 661.17L-63.94 496.96" stroke="#132e65" stroke-width="1.5"></path><path d="M69.19 661.17L112.26 404.08" stroke="#132e65" stroke-width="1.5"></path><path d="M216.15 355.56L216.15 355.56" stroke="#132e65" stroke-width="1.5"></path><path d="M216.15 355.56L195.64 495.7" stroke="#132e65" stroke-width="1.5"></path><path d="M195.64 495.7L195.64 495.7" stroke="#132e65" stroke-width="1.5"></path><path d="M195.64 495.7L57.78 503.88" stroke="#132e65" stroke-width="1.5"></path><path d="M195.64 495.7L362.02 387.23" stroke="#132e65" stroke-width="1.5"></path><path d="M195.64 495.7L397.97 508.07" stroke="#132e65" stroke-width="1.5"></path><path d="M362.02 387.23L362.02 387.23" stroke="#132e65" stroke-width="1.5"></path><path d="M362.02 387.23L397.97 508.07" stroke="#132e65" stroke-width="1.5"></path><path d="M362.02 387.23L216.15 355.56" stroke="#132e65" stroke-width="1.5"></path><path d="M362.02 387.23L520.52 491.77" stroke="#132e65" stroke-width="1.5"></path><path d="M362.02 387.23L550.54 338.17" stroke="#132e65" stroke-width="1.5"></path><path d="M362.02 387.23L112.26 404.08" stroke="#132e65" stroke-width="1.5"></path><path d="M397.97 508.07L397.97 508.07" stroke="#132e65" stroke-width="1.5"></path><path d="M397.97 508.07L520.52 491.77" stroke="#132e65" stroke-width="1.5"></path><path d="M397.97 508.07L341.47 665.47" stroke="#132e65" stroke-width="1.5"></path><path d="M397.97 508.07L529.43 637.95" stroke="#132e65" stroke-width="1.5"></path><path d="M341.47 665.47L341.47 665.47" stroke="#132e65" stroke-width="1.5"></path><path d="M341.47 665.47L529.43 637.95" stroke="#132e65" stroke-width="1.5"></path><path d="M341.47 665.47L195.64 495.7" stroke="#132e65" stroke-width="1.5"></path><path d="M341.47 665.47L520.52 491.77" stroke="#132e65" stroke-width="1.5"></path><path d="M341.47 665.47L69.19 661.17" stroke="#132e65" stroke-width="1.5"></path><path d="M341.47 665.47L362.02 387.23" stroke="#132e65" stroke-width="1.5"></path><path d="M550.54 338.17L550.54 338.17" stroke="#132e65" stroke-width="1.5"></path><path d="M550.54 338.17L667.65 250.5" stroke="#132e65" stroke-width="1.5"></path><path d="M550.54 338.17L697.48 338" stroke="#132e65" stroke-width="1.5"></path><path d="M520.52 491.77L520.52 491.77" stroke="#132e65" stroke-width="1.5"></path><path d="M520.52 491.77L656.32 492.29" stroke="#132e65" stroke-width="1.5"></path><path d="M529.43 637.95L529.43 637.95" stroke="#132e65" stroke-width="1.5"></path><path d="M529.43 637.95L520.52 491.77" stroke="#132e65" stroke-width="1.5"></path><path d="M529.43 637.95L676.93 696.76" stroke="#132e65" stroke-width="1.5"></path><path d="M667.65 250.5L667.65 250.5" stroke="#132e65" stroke-width="1.5"></path><path d="M667.65 250.5L697.48 338" stroke="#132e65" stroke-width="1.5"></path><path d="M697.48 338L697.48 338" stroke="#132e65" stroke-width="1.5"></path><path d="M697.48 338L812.79 354.11" stroke="#132e65" stroke-width="1.5"></path><path d="M697.48 338L656.32 492.29" stroke="#132e65" stroke-width="1.5"></path><path d="M697.48 338L815.92 193.6" stroke="#132e65" stroke-width="1.5"></path><path d="M697.48 338L793.45 527.93" stroke="#132e65" stroke-width="1.5"></path><path d="M656.32 492.29L656.32 492.29" stroke="#132e65" stroke-width="1.5"></path><path d="M656.32 492.29L793.45 527.93" stroke="#132e65" stroke-width="1.5"></path><path d="M676.93 696.76L676.93 696.76" stroke="#132e65" stroke-width="1.5"></path><path d="M676.93 696.76L799.89 689.67" stroke="#132e65" stroke-width="1.5"></path><path d="M856 87.26L856 87.26" stroke="#132e65" stroke-width="1.5"></path><path d="M856 87.26L815.92 193.6" stroke="#132e65" stroke-width="1.5"></path><path d="M856 87.26L1012.42 97.94" stroke="#132e65" stroke-width="1.5"></path><path d="M856 87.26L958.61 247.14" stroke="#132e65" stroke-width="1.5"></path><path d="M856 87.26L954.96 -98.33" stroke="#132e65" stroke-width="1.5"></path><path d="M856 87.26L667.65 250.5" stroke="#132e65" stroke-width="1.5"></path><path d="M856 87.26L812.79 354.11" stroke="#132e65" stroke-width="1.5"></path><path d="M815.92 193.6L815.92 193.6" stroke="#132e65" stroke-width="1.5"></path><path d="M815.92 193.6L958.61 247.14" stroke="#132e65" stroke-width="1.5"></path><path d="M815.92 193.6L667.65 250.5" stroke="#132e65" stroke-width="1.5"></path><path d="M812.79 354.11L812.79 354.11" stroke="#132e65" stroke-width="1.5"></path><path d="M812.79 354.11L815.92 193.6" stroke="#132e65" stroke-width="1.5"></path><path d="M812.79 354.11L793.45 527.93" stroke="#132e65" stroke-width="1.5"></path><path d="M793.45 527.93L793.45 527.93" stroke="#132e65" stroke-width="1.5"></path><path d="M793.45 527.93L799.89 689.67" stroke="#132e65" stroke-width="1.5"></path><path d="M793.45 527.93L955.23 550.05" stroke="#132e65" stroke-width="1.5"></path><path d="M799.89 689.67L799.89 689.67" stroke="#132e65" stroke-width="1.5"></path><path d="M799.89 689.67L961.54 677.49" stroke="#132e65" stroke-width="1.5"></path><path d="M799.89 689.67L955.23 550.05" stroke="#132e65" stroke-width="1.5"></path><path d="M799.89 689.67L656.32 492.29" stroke="#132e65" stroke-width="1.5"></path><path d="M799.89 689.67L529.43 637.95" stroke="#132e65" stroke-width="1.5"></path><path d="M954.96 -98.33L954.96 -98.33" stroke="#132e65" stroke-width="1.5"></path><path d="M954.96 -98.33L1113.68 -94.19" stroke="#132e65" stroke-width="1.5"></path><path d="M954.96 -98.33L1012.42 97.94" stroke="#132e65" stroke-width="1.5"></path><path d="M1012.42 97.94L1012.42 97.94" stroke="#132e65" stroke-width="1.5"></path><path d="M1012.42 97.94L1131.28 78.59" stroke="#132e65" stroke-width="1.5"></path><path d="M1012.42 97.94L958.61 247.14" stroke="#132e65" stroke-width="1.5"></path><path d="M958.61 247.14L958.61 247.14" stroke="#132e65" stroke-width="1.5"></path><path d="M958.61 247.14L999.53 341.79" stroke="#132e65" stroke-width="1.5"></path><path d="M958.61 247.14L1106.06 242.83" stroke="#132e65" stroke-width="1.5"></path><path d="M958.61 247.14L812.79 354.11" stroke="#132e65" stroke-width="1.5"></path><path d="M999.53 341.79L999.53 341.79" stroke="#132e65" stroke-width="1.5"></path><path d="M999.53 341.79L1119.24 349.49" stroke="#132e65" stroke-width="1.5"></path><path d="M999.53 341.79L1106.06 242.83" stroke="#132e65" stroke-width="1.5"></path><path d="M999.53 341.79L812.79 354.11" stroke="#132e65" stroke-width="1.5"></path><path d="M955.23 550.05L955.23 550.05" stroke="#132e65" stroke-width="1.5"></path><path d="M955.23 550.05L961.54 677.49" stroke="#132e65" stroke-width="1.5"></path><path d="M955.23 550.05L1103.59 648.91" stroke="#132e65" stroke-width="1.5"></path><path d="M961.54 677.49L961.54 677.49" stroke="#132e65" stroke-width="1.5"></path><path d="M961.54 677.49L1103.59 648.91" stroke="#132e65" stroke-width="1.5"></path><path d="M961.54 677.49L793.45 527.93" stroke="#132e65" stroke-width="1.5"></path><path d="M961.54 677.49L676.93 696.76" stroke="#132e65" stroke-width="1.5"></path><path d="M961.54 677.49L999.53 341.79" stroke="#132e65" stroke-width="1.5"></path><path d="M1113.68 -94.19L1113.68 -94.19" stroke="#132e65" stroke-width="1.5"></path><path d="M1113.68 -94.19L1279.27 -42.13" stroke="#132e65" stroke-width="1.5"></path><path d="M1113.68 -94.19L1131.28 78.59" stroke="#132e65" stroke-width="1.5"></path><path d="M1113.68 -94.19L1255.31 69.01" stroke="#132e65" stroke-width="1.5"></path><path d="M1113.68 -94.19L1012.42 97.94" stroke="#132e65" stroke-width="1.5"></path><path d="M1131.28 78.59L1131.28 78.59" stroke="#132e65" stroke-width="1.5"></path><path d="M1131.28 78.59L1255.31 69.01" stroke="#132e65" stroke-width="1.5"></path><path d="M1131.28 78.59L1106.06 242.83" stroke="#132e65" stroke-width="1.5"></path><path d="M1106.06 242.83L1106.06 242.83" stroke="#132e65" stroke-width="1.5"></path><path d="M1106.06 242.83L1119.24 349.49" stroke="#132e65" stroke-width="1.5"></path><path d="M1106.06 242.83L1012.42 97.94" stroke="#132e65" stroke-width="1.5"></path><path d="M1106.06 242.83L1306.39 215.44" stroke="#132e65" stroke-width="1.5"></path><path d="M1119.24 349.49L1119.24 349.49" stroke="#132e65" stroke-width="1.5"></path><path d="M1119.24 349.49L1297.02 400.76" stroke="#132e65" stroke-width="1.5"></path><path d="M1119.24 349.49L958.61 247.14" stroke="#132e65" stroke-width="1.5"></path><path d="M1119.24 349.49L1306.39 215.44" stroke="#132e65" stroke-width="1.5"></path><path d="M1119.24 349.49L955.23 550.05" stroke="#132e65" stroke-width="1.5"></path><path d="M1103.59 648.91L1103.59 648.91" stroke="#132e65" stroke-width="1.5"></path><path d="M1103.59 648.91L1309.69 681.23" stroke="#132e65" stroke-width="1.5"></path><path d="M1103.59 648.91L1392.42 656.3" stroke="#132e65" stroke-width="1.5"></path><path d="M1279.27 -42.13L1279.27 -42.13" stroke="#132e65" stroke-width="1.5"></path><path d="M1279.27 -42.13L1255.31 69.01" stroke="#132e65" stroke-width="1.5"></path><path d="M1279.27 -42.13L1422.38 -107.11" stroke="#132e65" stroke-width="1.5"></path><path d="M1255.31 69.01L1255.31 69.01" stroke="#132e65" stroke-width="1.5"></path><path d="M1255.31 69.01L1306.39 215.44" stroke="#132e65" stroke-width="1.5"></path><path d="M1255.31 69.01L1441.11 40.12" stroke="#132e65" stroke-width="1.5"></path><path d="M1255.31 69.01L1420.32 205.54" stroke="#132e65" stroke-width="1.5"></path><path d="M1306.39 215.44L1306.39 215.44" stroke="#132e65" stroke-width="1.5"></path><path d="M1306.39 215.44L1420.32 205.54" stroke="#132e65" stroke-width="1.5"></path><path d="M1297.02 400.76L1297.02 400.76" stroke="#132e65" stroke-width="1.5"></path><path d="M1297.02 400.76L1412.32 534.18" stroke="#132e65" stroke-width="1.5"></path><path d="M1297.02 400.76L1306.39 215.44" stroke="#132e65" stroke-width="1.5"></path><path d="M1297.02 400.76L1420.32 205.54" stroke="#132e65" stroke-width="1.5"></path><path d="M1309.69 681.23L1309.69 681.23" stroke="#132e65" stroke-width="1.5"></path><path d="M1309.69 681.23L1392.42 656.3" stroke="#132e65" stroke-width="1.5"></path><path d="M1309.69 681.23L1412.32 534.18" stroke="#132e65" stroke-width="1.5"></path><path d="M1309.69 681.23L1587.65 706.39" stroke="#132e65" stroke-width="1.5"></path><path d="M1309.69 681.23L1297.02 400.76" stroke="#132e65" stroke-width="1.5"></path><path d="M1422.38 -107.11L1422.38 -107.11" stroke="#132e65" stroke-width="1.5"></path><path d="M1422.38 -107.11L1441.11 40.12" stroke="#132e65" stroke-width="1.5"></path><path d="M1441.11 40.12L1441.11 40.12" stroke="#132e65" stroke-width="1.5"></path><path d="M1441.11 40.12L1582.77 71.82" stroke="#132e65" stroke-width="1.5"></path><path d="M1441.11 40.12L1420.32 205.54" stroke="#132e65" stroke-width="1.5"></path><path d="M1420.32 205.54L1420.32 205.54" stroke="#132e65" stroke-width="1.5"></path><path d="M1412.32 534.18L1412.32 534.18" stroke="#132e65" stroke-width="1.5"></path><path d="M1412.32 534.18L1392.42 656.3" stroke="#132e65" stroke-width="1.5"></path><path d="M1412.32 534.18L1586.21 548.95" stroke="#132e65" stroke-width="1.5"></path><path d="M1392.42 656.3L1392.42 656.3" stroke="#132e65" stroke-width="1.5"></path><path d="M1392.42 656.3L1587.65 706.39" stroke="#132e65" stroke-width="1.5"></path><path d="M1582.93 -87.05L1582.93 -87.05" stroke="#132e65" stroke-width="1.5"></path><path d="M1582.93 -87.05L1582.77 71.82" stroke="#132e65" stroke-width="1.5"></path><path d="M1582.93 -87.05L1422.38 -107.11" stroke="#132e65" stroke-width="1.5"></path><path d="M1582.77 71.82L1582.77 71.82" stroke="#132e65" stroke-width="1.5"></path><path d="M1591.99 256.91L1591.99 256.91" stroke="#132e65" stroke-width="1.5"></path><path d="M1591.99 256.91L1604.02 363.89" stroke="#132e65" stroke-width="1.5"></path><path d="M1591.99 256.91L1420.32 205.54" stroke="#132e65" stroke-width="1.5"></path><path d="M1591.99 256.91L1582.77 71.82" stroke="#132e65" stroke-width="1.5"></path><path d="M1591.99 256.91L1441.11 40.12" stroke="#132e65" stroke-width="1.5"></path><path d="M1591.99 256.91L1306.39 215.44" stroke="#132e65" stroke-width="1.5"></path><path d="M1604.02 363.89L1604.02 363.89" stroke="#132e65" stroke-width="1.5"></path><path d="M1604.02 363.89L1586.21 548.95" stroke="#132e65" stroke-width="1.5"></path><path d="M1604.02 363.89L1420.32 205.54" stroke="#132e65" stroke-width="1.5"></path><path d="M1604.02 363.89L1412.32 534.18" stroke="#132e65" stroke-width="1.5"></path><path d="M1604.02 363.89L1582.77 71.82" stroke="#132e65" stroke-width="1.5"></path><path d="M1604.02 363.89L1297.02 400.76" stroke="#132e65" stroke-width="1.5"></path><path d="M1586.21 548.95L1586.21 548.95" stroke="#132e65" stroke-width="1.5"></path><path d="M1586.21 548.95L1587.65 706.39" stroke="#132e65" stroke-width="1.5"></path><path d="M1587.65 706.39L1587.65 706.39" stroke="#132e65" stroke-width="1.5"></path><path d="M1587.65 706.39L1412.32 534.18" stroke="#132e65" stroke-width="1.5"></path><path d="M1587.65 706.39L1604.02 363.89" stroke="#132e65" stroke-width="1.5"></path><circle r="5" cx="-50.45" cy="377.98" fill="#132e65"></circle><circle r="5" cx="-63.94" cy="496.96" fill="#132e65"></circle><circle r="5" cx="-95.92" cy="696.45" fill="#132e65"></circle><circle r="5" cx="112.26" cy="404.08" fill="#132e65"></circle><circle r="5" cx="57.78" cy="503.88" fill="#132e65"></circle><circle r="5" cx="69.19" cy="661.17" fill="#132e65"></circle><circle r="5" cx="216.15" cy="355.56" fill="#132e65"></circle><circle r="5" cx="195.64" cy="495.7" fill="#132e65"></circle><circle r="5" cx="362.02" cy="387.23" fill="#132e65"></circle><circle r="5" cx="397.97" cy="508.07" fill="#132e65"></circle><circle r="5" cx="341.47" cy="665.47" fill="#132e65"></circle><circle r="5" cx="550.54" cy="338.17" fill="#132e65"></circle><circle r="5" cx="520.52" cy="491.77" fill="#132e65"></circle><circle r="5" cx="529.43" cy="637.95" fill="#132e65"></circle><circle r="5" cx="667.65" cy="250.5" fill="#132e65"></circle><circle r="5" cx="697.48" cy="338" fill="#132e65"></circle><circle r="5" cx="656.32" cy="492.29" fill="#132e65"></circle><circle r="5" cx="676.93" cy="696.76" fill="#132e65"></circle><circle r="5" cx="856" cy="87.26" fill="#132e65"></circle><circle r="5" cx="815.92" cy="193.6" fill="#132e65"></circle><circle r="5" cx="812.79" cy="354.11" fill="#132e65"></circle><circle r="5" cx="793.45" cy="527.93" fill="#132e65"></circle><circle r="5" cx="799.89" cy="689.67" fill="#132e65"></circle><circle r="5" cx="954.96" cy="-98.33" fill="#132e65"></circle><circle r="5" cx="1012.42" cy="97.94" fill="#132e65"></circle><circle r="5" cx="958.61" cy="247.14" fill="#132e65"></circle><circle r="5" cx="999.53" cy="341.79" fill="#132e65"></circle><circle r="5" cx="955.23" cy="550.05" fill="#132e65"></circle><circle r="5" cx="961.54" cy="677.49" fill="#132e65"></circle><circle r="5" cx="1113.68" cy="-94.19" fill="#132e65"></circle><circle r="5" cx="1131.28" cy="78.59" fill="#132e65"></circle><circle r="5" cx="1106.06" cy="242.83" fill="#132e65"></circle><circle r="5" cx="1119.24" cy="349.49" fill="#132e65"></circle><circle r="5" cx="1103.59" cy="648.91" fill="#132e65"></circle><circle r="5" cx="1279.27" cy="-42.13" fill="#132e65"></circle><circle r="5" cx="1255.31" cy="69.01" fill="#132e65"></circle><circle r="5" cx="1306.39" cy="215.44" fill="#132e65"></circle><circle r="5" cx="1297.02" cy="400.76" fill="#132e65"></circle><circle r="5" cx="1309.69" cy="681.23" fill="#132e65"></circle><circle r="5" cx="1422.38" cy="-107.11" fill="#132e65"></circle><circle r="5" cx="1441.11" cy="40.12" fill="#132e65"></circle><circle r="5" cx="1420.32" cy="205.54" fill="#132e65"></circle><circle r="5" cx="1412.32" cy="534.18" fill="#132e65"></circle><circle r="5" cx="1392.42" cy="656.3" fill="#132e65"></circle><circle r="5" cx="1582.93" cy="-87.05" fill="#132e65"></circle><circle r="5" cx="1582.77" cy="71.82" fill="#132e65"></circle><circle r="5" cx="1591.99" cy="256.91" fill="#132e65"></circle><circle r="5" cx="1604.02" cy="363.89" fill="#132e65"></circle><circle r="5" cx="1586.21" cy="548.95" fill="#132e65"></circle><circle r="5" cx="1587.65" cy="706.39" fill="#132e65"></circle><path d="M683.9 498.19L683.9 498.19" stroke="hsl(228.5, 77.2%, 51.5%)" stroke-width="1.5"></path><path d="M683.9 498.19L523.09 495.69" stroke="hsl(228.5, 77.2%, 51.5%)" stroke-width="1.5"></path><path d="M683.9 498.19L848.21 539.26" stroke="hsl(228.5, 77.2%, 51.5%)" stroke-width="1.5"></path><path d="M683.9 498.19L657.52 700.9" stroke="hsl(228.5, 77.2%, 51.5%)" stroke-width="1.5"></path><path d="M949.27 708.91L949.27 708.91" stroke="hsl(228.5, 77.2%, 51.5%)" stroke-width="1.5"></path><path d="M949.27 708.91L827.05 658.89" stroke="hsl(228.5, 77.2%, 51.5%)" stroke-width="1.5"></path><path d="M949.27 708.91L1098.22 646.78" stroke="hsl(228.5, 77.2%, 51.5%)" stroke-width="1.5"></path><path d="M1100.16 489.73L1100.16 489.73" stroke="hsl(228.5, 77.2%, 51.5%)" stroke-width="1.5"></path><path d="M1100.16 489.73L1011.05 540.6" stroke="hsl(228.5, 77.2%, 51.5%)" stroke-width="1.5"></path><path d="M1100.16 489.73L1098.22 646.78" stroke="hsl(228.5, 77.2%, 51.5%)" stroke-width="1.5"></path><path d="M1100.16 489.73L1293.5 552.52" stroke="hsl(228.5, 77.2%, 51.5%)" stroke-width="1.5"></path><path d="M1100.16 489.73L848.21 539.26" stroke="hsl(228.5, 77.2%, 51.5%)" stroke-width="1.5"></path><path d="M1100.16 489.73L949.27 708.91" stroke="hsl(228.5, 77.2%, 51.5%)" stroke-width="1.5"></path><path d="M1100.16 489.73L856.04 365.83" stroke="hsl(228.5, 77.2%, 51.5%)" stroke-width="1.5"></path><path d="M1293.5 552.52L1293.5 552.52" stroke="hsl(228.5, 77.2%, 51.5%)" stroke-width="1.5"></path><path d="M1293.5 552.52L1402.6 531.95" stroke="hsl(228.5, 77.2%, 51.5%)" stroke-width="1.5"></path><path d="M1293.5 552.52L1287.63 690.23" stroke="hsl(228.5, 77.2%, 51.5%)" stroke-width="1.5"></path><path d="M1293.5 552.52L1453.24 642.58" stroke="hsl(228.5, 77.2%, 51.5%)" stroke-width="1.5"></path><path d="M1293.5 552.52L1098.22 646.78" stroke="hsl(228.5, 77.2%, 51.5%)" stroke-width="1.5"></path><path d="M1406.51 -107.12L1406.51 -107.12" stroke="hsl(228.5, 77.2%, 51.5%)" stroke-width="1.5"></path><path d="M1406.51 -107.12L1284.41 -102.47" stroke="hsl(228.5, 77.2%, 51.5%)" stroke-width="1.5"></path><path d="M1406.51 -107.12L1419.5 86.8" stroke="hsl(228.5, 77.2%, 51.5%)" stroke-width="1.5"></path><path d="M-63.24 516.04L-63.24 516.04" stroke="hsl(228.5, 77.2%, 51.5%)" stroke-width="1.5"></path><path d="M-63.24 516.04L108.06 528.79" stroke="hsl(228.5, 77.2%, 51.5%)" stroke-width="1.5"></path><path d="M-63.24 516.04L-90.58 708.93" stroke="hsl(228.5, 77.2%, 51.5%)" stroke-width="1.5"></path><path d="M-63.24 516.04L95.29 660.77" stroke="hsl(228.5, 77.2%, 51.5%)" stroke-width="1.5"></path><path d="M-63.24 516.04L232.02 503.45" stroke="hsl(228.5, 77.2%, 51.5%)" stroke-width="1.5"></path><path d="M-90.58 708.93L-90.58 708.93" stroke="hsl(228.5, 77.2%, 51.5%)" stroke-width="1.5"></path><path d="M-90.58 708.93L95.29 660.77" stroke="hsl(228.5, 77.2%, 51.5%)" stroke-width="1.5"></path><path d="M-90.58 708.93L108.06 528.79" stroke="hsl(228.5, 77.2%, 51.5%)" stroke-width="1.5"></path><path d="M-90.58 708.93L232.85 642.59" stroke="hsl(228.5, 77.2%, 51.5%)" stroke-width="1.5"></path><path d="M-90.58 708.93L232.02 503.45" stroke="hsl(228.5, 77.2%, 51.5%)" stroke-width="1.5"></path><path d="M-90.58 708.93L362.17 653.74" stroke="hsl(228.5, 77.2%, 51.5%)" stroke-width="1.5"></path><path d="M108.06 528.79L108.06 528.79" stroke="hsl(228.5, 77.2%, 51.5%)" stroke-width="1.5"></path><path d="M108.06 528.79L232.02 503.45" stroke="hsl(228.5, 77.2%, 51.5%)" stroke-width="1.5"></path><path d="M108.06 528.79L95.29 660.77" stroke="hsl(228.5, 77.2%, 51.5%)" stroke-width="1.5"></path><path d="M95.29 660.77L95.29 660.77" stroke="hsl(228.5, 77.2%, 51.5%)" stroke-width="1.5"></path><path d="M95.29 660.77L232.85 642.59" stroke="hsl(228.5, 77.2%, 51.5%)" stroke-width="1.5"></path><path d="M95.29 660.77L232.02 503.45" stroke="hsl(228.5, 77.2%, 51.5%)" stroke-width="1.5"></path><path d="M95.29 660.77L362.17 653.74" stroke="hsl(228.5, 77.2%, 51.5%)" stroke-width="1.5"></path><path d="M232.02 503.45L232.02 503.45" stroke="hsl(228.5, 77.2%, 51.5%)" stroke-width="1.5"></path><path d="M232.02 503.45L232.85 642.59" stroke="hsl(228.5, 77.2%, 51.5%)" stroke-width="1.5"></path><path d="M232.02 503.45L362.17 653.74" stroke="hsl(228.5, 77.2%, 51.5%)" stroke-width="1.5"></path><path d="M232.02 503.45L523.09 495.69" stroke="hsl(228.5, 77.2%, 51.5%)" stroke-width="1.5"></path><path d="M232.85 642.59L232.85 642.59" stroke="hsl(228.5, 77.2%, 51.5%)" stroke-width="1.5"></path><path d="M232.85 642.59L362.17 653.74" stroke="hsl(228.5, 77.2%, 51.5%)" stroke-width="1.5"></path><path d="M362.17 653.74L362.17 653.74" stroke="hsl(228.5, 77.2%, 51.5%)" stroke-width="1.5"></path><path d="M362.17 653.74L500 659.26" stroke="hsl(228.5, 77.2%, 51.5%)" stroke-width="1.5"></path><path d="M523.09 495.69L523.09 495.69" stroke="hsl(228.5, 77.2%, 51.5%)" stroke-width="1.5"></path><path d="M523.09 495.69L500 659.26" stroke="hsl(228.5, 77.2%, 51.5%)" stroke-width="1.5"></path><path d="M523.09 495.69L362.17 653.74" stroke="hsl(228.5, 77.2%, 51.5%)" stroke-width="1.5"></path><path d="M523.09 495.69L657.52 700.9" stroke="hsl(228.5, 77.2%, 51.5%)" stroke-width="1.5"></path><path d="M500 659.26L500 659.26" stroke="hsl(228.5, 77.2%, 51.5%)" stroke-width="1.5"></path><path d="M500 659.26L657.52 700.9" stroke="hsl(228.5, 77.2%, 51.5%)" stroke-width="1.5"></path><path d="M500 659.26L683.9 498.19" stroke="hsl(228.5, 77.2%, 51.5%)" stroke-width="1.5"></path><path d="M500 659.26L232.85 642.59" stroke="hsl(228.5, 77.2%, 51.5%)" stroke-width="1.5"></path><path d="M657.52 700.9L657.52 700.9" stroke="hsl(228.5, 77.2%, 51.5%)" stroke-width="1.5"></path><path d="M657.52 700.9L827.05 658.89" stroke="hsl(228.5, 77.2%, 51.5%)" stroke-width="1.5"></path><path d="M856.04 365.83L856.04 365.83" stroke="hsl(228.5, 77.2%, 51.5%)" stroke-width="1.5"></path><path d="M856.04 365.83L848.21 539.26" stroke="hsl(228.5, 77.2%, 51.5%)" stroke-width="1.5"></path><path d="M856.04 365.83L683.9 498.19" stroke="hsl(228.5, 77.2%, 51.5%)" stroke-width="1.5"></path><path d="M856.04 365.83L1011.05 540.6" stroke="hsl(228.5, 77.2%, 51.5%)" stroke-width="1.5"></path><path d="M848.21 539.26L848.21 539.26" stroke="hsl(228.5, 77.2%, 51.5%)" stroke-width="1.5"></path><path d="M848.21 539.26L827.05 658.89" stroke="hsl(228.5, 77.2%, 51.5%)" stroke-width="1.5"></path><path d="M848.21 539.26L1011.05 540.6" stroke="hsl(228.5, 77.2%, 51.5%)" stroke-width="1.5"></path><path d="M827.05 658.89L827.05 658.89" stroke="hsl(228.5, 77.2%, 51.5%)" stroke-width="1.5"></path><path d="M827.05 658.89L683.9 498.19" stroke="hsl(228.5, 77.2%, 51.5%)" stroke-width="1.5"></path><path d="M1011.05 540.6L1011.05 540.6" stroke="hsl(228.5, 77.2%, 51.5%)" stroke-width="1.5"></path><path d="M1011.05 540.6L1098.22 646.78" stroke="hsl(228.5, 77.2%, 51.5%)" stroke-width="1.5"></path><path d="M1151.14 104.3L1151.14 104.3" stroke="hsl(228.5, 77.2%, 51.5%)" stroke-width="1.5"></path><path d="M1151.14 104.3L1297.27 258.44" stroke="hsl(228.5, 77.2%, 51.5%)" stroke-width="1.5"></path><path d="M1151.14 104.3L1284.41 -102.47" stroke="hsl(228.5, 77.2%, 51.5%)" stroke-width="1.5"></path><path d="M1151.14 104.3L1391.63 204.35" stroke="hsl(228.5, 77.2%, 51.5%)" stroke-width="1.5"></path><path d="M1151.14 104.3L1419.5 86.8" stroke="hsl(228.5, 77.2%, 51.5%)" stroke-width="1.5"></path><path d="M1098.22 646.78L1098.22 646.78" stroke="hsl(228.5, 77.2%, 51.5%)" stroke-width="1.5"></path><path d="M1284.41 -102.47L1284.41 -102.47" stroke="hsl(228.5, 77.2%, 51.5%)" stroke-width="1.5"></path><path d="M1284.41 -102.47L1419.5 86.8" stroke="hsl(228.5, 77.2%, 51.5%)" stroke-width="1.5"></path><path d="M1284.41 -102.47L1542.6 61.87" stroke="hsl(228.5, 77.2%, 51.5%)" stroke-width="1.5"></path><path d="M1297.27 258.44L1297.27 258.44" stroke="hsl(228.5, 77.2%, 51.5%)" stroke-width="1.5"></path><path d="M1297.27 258.44L1391.63 204.35" stroke="hsl(228.5, 77.2%, 51.5%)" stroke-width="1.5"></path><path d="M1297.27 258.44L1419.5 86.8" stroke="hsl(228.5, 77.2%, 51.5%)" stroke-width="1.5"></path><path d="M1297.27 258.44L1545.14 220.76" stroke="hsl(228.5, 77.2%, 51.5%)" stroke-width="1.5"></path><path d="M1297.27 258.44L1402.6 531.95" stroke="hsl(228.5, 77.2%, 51.5%)" stroke-width="1.5"></path><path d="M1287.63 690.23L1287.63 690.23" stroke="hsl(228.5, 77.2%, 51.5%)" stroke-width="1.5"></path><path d="M1287.63 690.23L1453.24 642.58" stroke="hsl(228.5, 77.2%, 51.5%)" stroke-width="1.5"></path><path d="M1287.63 690.23L1098.22 646.78" stroke="hsl(228.5, 77.2%, 51.5%)" stroke-width="1.5"></path><path d="M1287.63 690.23L1402.6 531.95" stroke="hsl(228.5, 77.2%, 51.5%)" stroke-width="1.5"></path><path d="M1287.63 690.23L1100.16 489.73" stroke="hsl(228.5, 77.2%, 51.5%)" stroke-width="1.5"></path><path d="M1287.63 690.23L1572.71 693.93" stroke="hsl(228.5, 77.2%, 51.5%)" stroke-width="1.5"></path><path d="M1419.5 86.8L1419.5 86.8" stroke="hsl(228.5, 77.2%, 51.5%)" stroke-width="1.5"></path><path d="M1419.5 86.8L1391.63 204.35" stroke="hsl(228.5, 77.2%, 51.5%)" stroke-width="1.5"></path><path d="M1419.5 86.8L1542.6 61.87" stroke="hsl(228.5, 77.2%, 51.5%)" stroke-width="1.5"></path><path d="M1419.5 86.8L1545.14 220.76" stroke="hsl(228.5, 77.2%, 51.5%)" stroke-width="1.5"></path><path d="M1419.5 86.8L1596.96 -39.44" stroke="hsl(228.5, 77.2%, 51.5%)" stroke-width="1.5"></path><path d="M1391.63 204.35L1391.63 204.35" stroke="hsl(228.5, 77.2%, 51.5%)" stroke-width="1.5"></path><path d="M1391.63 204.35L1545.14 220.76" stroke="hsl(228.5, 77.2%, 51.5%)" stroke-width="1.5"></path><path d="M1402.6 531.95L1402.6 531.95" stroke="hsl(228.5, 77.2%, 51.5%)" stroke-width="1.5"></path><path d="M1402.6 531.95L1453.24 642.58" stroke="hsl(228.5, 77.2%, 51.5%)" stroke-width="1.5"></path><path d="M1402.6 531.95L1563.32 544.48" stroke="hsl(228.5, 77.2%, 51.5%)" stroke-width="1.5"></path><path d="M1402.6 531.95L1572.71 693.93" stroke="hsl(228.5, 77.2%, 51.5%)" stroke-width="1.5"></path><path d="M1453.24 642.58L1453.24 642.58" stroke="hsl(228.5, 77.2%, 51.5%)" stroke-width="1.5"></path><path d="M1453.24 642.58L1572.71 693.93" stroke="hsl(228.5, 77.2%, 51.5%)" stroke-width="1.5"></path><path d="M1453.24 642.58L1563.32 544.48" stroke="hsl(228.5, 77.2%, 51.5%)" stroke-width="1.5"></path><path d="M1596.96 -39.44L1596.96 -39.44" stroke="hsl(228.5, 77.2%, 51.5%)" stroke-width="1.5"></path><path d="M1596.96 -39.44L1542.6 61.87" stroke="hsl(228.5, 77.2%, 51.5%)" stroke-width="1.5"></path><path d="M1596.96 -39.44L1406.51 -107.12" stroke="hsl(228.5, 77.2%, 51.5%)" stroke-width="1.5"></path><path d="M1596.96 -39.44L1545.14 220.76" stroke="hsl(228.5, 77.2%, 51.5%)" stroke-width="1.5"></path><path d="M1596.96 -39.44L1391.63 204.35" stroke="hsl(228.5, 77.2%, 51.5%)" stroke-width="1.5"></path><path d="M1542.6 61.87L1542.6 61.87" stroke="hsl(228.5, 77.2%, 51.5%)" stroke-width="1.5"></path><path d="M1545.14 220.76L1545.14 220.76" stroke="hsl(228.5, 77.2%, 51.5%)" stroke-width="1.5"></path><path d="M1545.14 220.76L1579.64 369.86" stroke="hsl(228.5, 77.2%, 51.5%)" stroke-width="1.5"></path><path d="M1579.64 369.86L1579.64 369.86" stroke="hsl(228.5, 77.2%, 51.5%)" stroke-width="1.5"></path><path d="M1579.64 369.86L1563.32 544.48" stroke="hsl(228.5, 77.2%, 51.5%)" stroke-width="1.5"></path><path d="M1579.64 369.86L1402.6 531.95" stroke="hsl(228.5, 77.2%, 51.5%)" stroke-width="1.5"></path><path d="M1579.64 369.86L1391.63 204.35" stroke="hsl(228.5, 77.2%, 51.5%)" stroke-width="1.5"></path><path d="M1563.32 544.48L1563.32 544.48" stroke="hsl(228.5, 77.2%, 51.5%)" stroke-width="1.5"></path><path d="M1563.32 544.48L1572.71 693.93" stroke="hsl(228.5, 77.2%, 51.5%)" stroke-width="1.5"></path><path d="M1563.32 544.48L1293.5 552.52" stroke="hsl(228.5, 77.2%, 51.5%)" stroke-width="1.5"></path><path d="M1572.71 693.93L1572.71 693.93" stroke="hsl(228.5, 77.2%, 51.5%)" stroke-width="1.5"></path><path d="M1572.71 693.93L1293.5 552.52" stroke="hsl(228.5, 77.2%, 51.5%)" stroke-width="1.5"></path><circle r="25" cx="683.9" cy="498.19" fill="url(&quot;#SvgjsRadialGradient1462&quot;)"></circle><circle r="25" cx="949.27" cy="708.91" fill="url(&quot;#SvgjsRadialGradient1462&quot;)"></circle><circle r="25" cx="1100.16" cy="489.73" fill="url(&quot;#SvgjsRadialGradient1462&quot;)"></circle><circle r="25" cx="1293.5" cy="552.52" fill="url(&quot;#SvgjsRadialGradient1462&quot;)"></circle><circle r="25" cx="1406.51" cy="-107.12" fill="url(&quot;#SvgjsRadialGradient1462&quot;)"></circle><circle r="5" cx="-63.24" cy="516.04" fill="#8b9ad9"></circle><circle r="5" cx="-90.58" cy="708.93" fill="#8b9ad9"></circle><circle r="5" cx="108.06" cy="528.79" fill="#8b9ad9"></circle><circle r="5" cx="95.29" cy="660.77" fill="#8b9ad9"></circle><circle r="5" cx="232.02" cy="503.45" fill="#8b9ad9"></circle><circle r="5" cx="232.85" cy="642.59" fill="#8b9ad9"></circle><circle r="5" cx="362.17" cy="653.74" fill="#8b9ad9"></circle><circle r="5" cx="523.09" cy="495.69" fill="#8b9ad9"></circle><circle r="5" cx="500" cy="659.26" fill="#8b9ad9"></circle><circle r="5" cx="657.52" cy="700.9" fill="#8b9ad9"></circle><circle r="5" cx="856.04" cy="365.83" fill="#8b9ad9"></circle><circle r="5" cx="848.21" cy="539.26" fill="#8b9ad9"></circle><circle r="5" cx="827.05" cy="658.89" fill="#8b9ad9"></circle><circle r="5" cx="1011.05" cy="540.6" fill="#8b9ad9"></circle><circle r="5" cx="1151.14" cy="104.3" fill="#8b9ad9"></circle><circle r="5" cx="1098.22" cy="646.78" fill="#8b9ad9"></circle><circle r="5" cx="1284.41" cy="-102.47" fill="#8b9ad9"></circle><circle r="5" cx="1297.27" cy="258.44" fill="#8b9ad9"></circle><circle r="5" cx="1287.63" cy="690.23" fill="#8b9ad9"></circle><circle r="5" cx="1419.5" cy="86.8" fill="#8b9ad9"></circle><circle r="5" cx="1391.63" cy="204.35" fill="#8b9ad9"></circle><circle r="5" cx="1402.6" cy="531.95" fill="#8b9ad9"></circle><circle r="5" cx="1453.24" cy="642.58" fill="#8b9ad9"></circle><circle r="5" cx="1596.96" cy="-39.44" fill="#8b9ad9"></circle><circle r="5" cx="1542.6" cy="61.87" fill="#8b9ad9"></circle><circle r="5" cx="1545.14" cy="220.76" fill="#8b9ad9"></circle><circle r="5" cx="1579.64" cy="369.86" fill="#8b9ad9"></circle><circle r="5" cx="1563.32" cy="544.48" fill="#8b9ad9"></circle><circle r="5" cx="1572.71" cy="693.93" fill="#8b9ad9"></circle></g><defs><mask id="SvgjsMask1460"><rect width="1440" height="560" fill="#ffffff"></rect></mask><linearGradient x1="0%" y1="50%" x2="100%" y2="50%" gradientUnits="userSpaceOnUse" id="SvgjsLinearGradient1461"><stop stop-color="rgba(14, 42, 71, 1)" offset="0"></stop><stop stop-color="rgba(0, 0, 0, 1)" offset="1"></stop></linearGradient><radialGradient id="SvgjsRadialGradient1462"><stop stop-color="#ffffff" offset="0.1"></stop><stop stop-color="#1735b3" offset="0.2"></stop><stop stop-color="rgba(23, 53, 179, 0)" offset="1"></stop></radialGradient></defs></svg>